
<svg width="148px" height="48px" viewBox="0 0 148 48" version="1.1" xmlns="http://www.w3.org/2000/svg" xmlns:xlink="http://www.w3.org/1999/xlink">
    <defs>
        <polygon id="path-1" points="0 0.0658 12.6569 0.0658 12.6569 16.1828 0 16.1828"></polygon>
        <polygon id="path-3" points="0.1429 0.3766 12.4069 0.3766 12.4069 17 0.1429 17"></polygon>
    </defs>
    <g id="Page-1" stroke="none" stroke-width="1" fill="none" fill-rule="evenodd">
        <g id="desktop_home" transform="translate(-47.000000, -28.000000)">
            <g id="Group-49" transform="translate(47.000000, 28.000000)">
                <path d="M0.0834,17.4271 L2.0344,17.4271 L2.0344,5.6661 L0.0834,5.6661 L0.0834,3.3951 L7.8764,3.3951 C8.8624,3.3951 9.8284,3.4631 10.6284,3.8071 C12.3944,4.5431 13.5394,6.3311 13.5394,8.6231 C13.5394,10.9381 12.3484,12.9101 10.4444,13.5761 C9.6884,13.8271 8.8624,13.8931 7.9474,13.8931 L5.0354,13.8931 L5.0354,17.4271 L7.0064,17.4271 L7.0064,19.6751 L0.0834,19.6751 L0.0834,17.4271 Z M7.5574,11.4891 C8.2224,11.4891 8.7724,11.3741 9.2074,11.1691 C10.1014,10.7341 10.5364,9.8131 10.5364,8.6231 C10.5364,7.4971 10.1014,6.6281 9.3444,6.1911 C8.9094,5.9421 8.3364,5.8011 7.5794,5.8011 L5.0354,5.8011 L5.0354,11.4891 L7.5574,11.4891 Z" id="Fill-1" fill="#E95461"></path>
                <path d="M14.1337,17.4949 L15.8277,17.4949 L15.8277,10.6639 C15.8277,10.3199 15.6677,10.1589 15.3247,10.1589 L14.0177,10.1589 L14.0177,7.9809 L17.0687,7.9809 C18.0977,7.9809 18.6247,8.4639 18.6247,9.4019 L18.6247,10.0919 C18.6247,10.2959 18.6247,10.4559 18.6017,10.6179 C18.5817,10.6859 18.5817,10.7529 18.5817,10.8229 L18.6247,10.8229 C19.1767,9.1509 20.5277,7.8189 22.3387,7.8189 C22.4997,7.8189 22.6147,7.8189 22.7087,7.8429 C22.7767,7.8669 22.8207,7.8669 22.8647,7.8669 L22.8647,10.7339 C22.7977,10.7339 22.7307,10.7339 22.6607,10.7099 C22.4997,10.6859 22.3607,10.6859 22.1557,10.6859 C19.7957,10.6859 18.7397,12.7489 18.7397,14.9489 L18.7397,17.4949 L20.4137,17.4949 L20.4137,19.6749 L14.1337,19.6749 L14.1337,17.4949 Z" id="Fill-3" fill="#E95461"></path>
                <path d="M29.4213,7.7064 C32.9963,7.7064 35.8613,10.2504 35.8613,13.8274 C35.8613,17.4264 32.9963,19.9484 29.4433,19.9484 C25.8663,19.9484 23.0003,17.4264 23.0003,13.8274 C23.0003,10.2504 25.8663,7.7064 29.4213,7.7064 M29.4433,17.4714 C31.3453,17.4714 32.9033,16.0044 32.9033,13.8274 C32.9033,11.6704 31.3453,10.1814 29.4433,10.1814 C27.5383,10.1814 25.9573,11.6704 25.9573,13.8274 C25.9573,16.0044 27.5383,17.4714 29.4433,17.4714" id="Fill-5" fill="#E95461"></path>
                <path d="M37.3857,22.0809 L37.3857,10.6639 C37.3857,10.3199 37.2267,10.1589 36.8817,10.1589 L35.5737,10.1589 L35.5737,7.9809 L38.5777,7.9809 C39.6567,7.9809 40.0227,8.4639 40.0227,9.0819 L40.0227,9.1509 L40.0227,9.5159 C40.0227,9.5869 40.0227,9.6319 39.9987,9.6749 L40.0437,9.6749 C40.2507,9.3099 40.5487,8.9909 40.8927,8.6919 C41.5147,8.1649 42.4307,7.7069 43.8047,7.7069 C46.9687,7.7069 48.9877,10.2029 48.9877,13.8279 C48.9877,17.5429 46.7187,19.9489 43.6437,19.9489 C42.4737,19.9489 41.6507,19.5579 41.0997,19.1229 C40.7797,18.8709 40.5047,18.5949 40.2737,18.3009 L40.2267,18.3009 L40.2737,18.5729 C40.2967,18.7569 40.2967,19.0099 40.2967,19.3069 L40.2967,22.0809 L41.9957,22.0809 L41.9957,24.2579 L35.6897,24.2579 L35.6897,22.0809 L37.3857,22.0809 Z M43.1187,17.4949 C44.7227,17.4949 46.0537,16.1899 46.0537,13.8749 C46.0537,11.6509 44.8817,10.2029 43.1407,10.2029 C41.6037,10.2029 40.2047,11.3309 40.2047,13.8939 C40.2047,15.7069 41.1897,17.4949 43.1187,17.4949 Z" id="Fill-7" fill="#E95461"></path>
                <path d="M55.4916,7.7064 C58.8616,7.7064 60.6976,10.1584 60.6976,13.2544 C60.6976,13.4144 60.6976,13.6674 60.6726,13.8754 L60.6266,14.2384 L52.5356,14.2384 C52.7156,16.3704 54.2756,17.4944 56.0416,17.4944 C57.0266,17.4944 57.8306,17.2214 58.4506,16.8784 C58.8136,16.6924 59.1386,16.4864 59.4356,16.2574 L60.5576,18.3214 C60.2146,18.6184 59.7776,18.8704 59.2976,19.1234 C58.4726,19.5574 57.3036,19.9484 55.8336,19.9484 C51.9596,19.9484 49.5526,17.1284 49.5526,13.8274 C49.5526,10.2264 51.9846,7.7064 55.4916,7.7064 Z M57.6936,12.5204 C57.6266,10.8914 56.6836,9.9504 55.4236,9.9504 C53.9346,9.9504 52.8776,10.9604 52.6036,12.5204 L57.6936,12.5204 Z" id="Fill-9" fill="#E95461"></path>
                <path d="M61.5429,17.4949 L63.2369,17.4949 L63.2369,10.6639 C63.2369,10.3199 63.0759,10.1589 62.7319,10.1589 L61.4269,10.1589 L61.4269,7.9809 L64.4769,7.9809 C65.5059,7.9809 66.0349,8.4639 66.0349,9.4019 L66.0349,10.0919 C66.0349,10.2959 66.0349,10.4559 66.0099,10.6179 C65.9889,10.6859 65.9889,10.7529 65.9889,10.8229 L66.0349,10.8229 C66.5859,9.1509 67.9369,7.8189 69.7479,7.8189 C69.9079,7.8189 70.0249,7.8189 70.1159,7.8429 C70.1829,7.8669 70.2309,7.8669 70.2759,7.8669 L70.2759,10.7339 C70.2059,10.7339 70.1359,10.7339 70.0679,10.7099 C69.9079,10.6859 69.7709,10.6859 69.5649,10.6859 C67.2029,10.6859 66.1469,12.7489 66.1469,14.9489 L66.1469,17.4949 L67.8219,17.4949 L67.8219,19.6749 L61.5429,19.6749 L61.5429,17.4949 Z" id="Fill-11" fill="#E95461"></path>
                <path d="M72.8461,10.1585 L71.0591,10.1585 L71.0591,7.9805 L72.9381,7.9805 L72.9381,4.7945 L75.7581,4.7945 L75.7581,7.9805 L78.4181,7.9805 L78.4181,10.1585 L75.7581,10.1585 L75.7581,15.0885 C75.7581,17.1055 77.2701,17.3585 78.0951,17.3585 C78.2551,17.3585 78.3921,17.3355 78.4871,17.3355 L78.6241,17.3355 L78.6241,19.7185 L78.3711,19.7665 C78.2121,19.7875 78.0041,19.7875 77.7281,19.7875 C76.0801,19.7875 72.8461,19.3075 72.8461,15.3875 L72.8461,10.1585 Z" id="Fill-13" fill="#E95461"></path>
                <path d="M80.5429,21.5526 C80.7039,21.6696 80.8629,21.7606 81.0219,21.8306 C81.3189,21.9916 81.7799,22.1026 82.3069,22.1026 C83.2459,22.1026 84.0039,21.5996 84.3699,20.7506 L84.6909,20.0186 L80.6799,10.1586 L79.2809,10.1586 L79.2809,7.9806 L85.0369,7.9806 L85.0369,10.1586 L83.6609,10.1586 L85.7929,16.0746 C85.9089,16.3496 85.9299,16.6446 85.9969,16.8996 C86.0209,17.0366 86.0419,17.1746 86.0419,17.2896 L86.1139,17.2896 L86.1829,16.8996 C86.2499,16.6446 86.3199,16.3496 86.4349,16.0746 L88.5429,10.1586 L87.1899,10.1586 L87.1899,7.9806 L92.7169,7.9806 L92.7169,10.1586 L91.3879,10.1586 L87.0769,21.1866 C86.1829,23.5006 84.4629,24.4876 82.4429,24.4876 C81.5939,24.4876 80.9089,24.3046 80.3819,24.0996 C80.0829,23.9836 79.8289,23.8476 79.6039,23.6866 L80.5429,21.5526 Z" id="Fill-15" fill="#E95461"></path>
                <g id="Group-19" transform="translate(0.000000, 26.711000)">
                    <mask id="mask-2" fill="white">
                        <use xlink:href="#path-1"></use>
                    </mask>
                    <g id="Clip-18"></g>
                    <path d="M-0.0001,14.8538 L2.1089,14.8538 L2.1089,1.3958 L-0.0001,1.3958 L-0.0001,0.0658 L7.2699,0.0658 C8.3919,0.0658 9.2879,0.2248 10.0439,0.6158 C11.2129,1.1658 12.0149,2.4728 12.0149,4.1458 C12.0149,5.7978 11.2129,7.0118 9.9539,7.6308 L9.9539,7.6778 C11.6009,8.1578 12.6569,9.7208 12.6569,11.6438 C12.6569,13.6628 11.5119,15.2208 9.9289,15.8378 C9.1959,16.1138 8.4169,16.1828 7.5209,16.1828 L-0.0001,16.1828 L-0.0001,14.8538 Z M7.6369,7.0598 C9.2879,7.0598 10.3649,5.9578 10.3649,4.2388 C10.3649,3.1608 9.9289,2.3138 9.1959,1.8548 C8.6669,1.5548 8.0709,1.4428 7.2699,1.4428 L3.7149,1.4428 L3.7149,7.0598 L7.6369,7.0598 Z M7.5679,14.8088 C8.0969,14.8088 8.7139,14.7618 9.2429,14.5548 C10.3419,14.0978 11.0069,12.9988 11.0069,11.6198 C11.0069,9.6708 9.7219,8.4368 7.8189,8.4368 L3.7149,8.4368 L3.7149,14.8088 L7.5679,14.8088 Z" id="Fill-17" fill="#212844" mask="url(#mask-2)"></path>
                </g>
                <path d="M19.5898,31.0862 C22.9618,31.0862 25.6918,33.6792 25.6918,37.0712 C25.6918,40.5562 22.9618,43.1702 19.5898,43.1702 C16.2458,43.1702 13.5158,40.5562 13.5158,37.0712 C13.5158,33.6792 16.2458,31.0862 19.5898,31.0862 M19.5898,41.7722 C22.0678,41.7722 24.0858,39.7542 24.0858,37.0712 C24.0858,34.4342 22.0678,32.4862 19.5898,32.4862 C17.1378,32.4862 15.1208,34.4342 15.1208,37.0712 C15.1208,39.7542 17.1378,41.7722 19.5898,41.7722" id="Fill-20" fill="#212844"></path>
                <path d="M32.3793,31.0862 C35.7513,31.0862 38.4793,33.6792 38.4793,37.0712 C38.4793,40.5562 35.7513,43.1702 32.3793,43.1702 C29.0333,43.1702 26.3053,40.5562 26.3053,37.0712 C26.3053,33.6792 29.0333,31.0862 32.3793,31.0862 M32.3793,41.7722 C34.8553,41.7722 36.8743,39.7542 36.8743,37.0712 C36.8743,34.4342 34.8553,32.4862 32.3793,32.4862 C29.9253,32.4862 27.9093,34.4342 27.9093,37.0712 C27.9093,39.7542 29.9253,41.7722 32.3793,41.7722" id="Fill-22" fill="#212844"></path>
                <path d="M38.1674,41.6097 L40.1184,41.6097 L40.1184,28.0607 L38.0524,28.0607 L38.0524,26.7767 L41.6784,26.7767 L41.6784,35.8547 L43.4874,35.8547 L46.2144,32.6447 L44.5654,32.6447 L44.5654,31.3627 L49.5164,31.3627 L49.5164,32.6447 L47.9114,32.6447 L44.7484,36.3157 L44.7484,36.3597 C44.7704,36.3597 45.0924,36.4747 45.5504,37.2797 L47.8454,41.1307 C48.0964,41.5187 48.2544,41.6097 48.8994,41.6097 L49.6784,41.6097 L49.6784,42.8937 L48.3924,42.8937 C47.2244,42.8937 46.9504,42.6887 46.3994,41.7457 L43.9454,37.5987 C43.6724,37.1627 43.3734,37.1157 42.8224,37.1157 L41.6784,37.1157 L41.6784,41.6097 L43.5094,41.6097 L43.5094,42.8937 L38.1674,42.8937 L38.1674,41.6097 Z" id="Fill-24" fill="#212844"></path>
                <path d="M50.3168,41.6097 L52.2658,41.6097 L52.2658,32.6447 L50.1988,32.6447 L50.1988,31.3627 L53.8228,31.3627 L53.8228,41.6097 L55.7708,41.6097 L55.7708,42.8937 L50.3168,42.8937 L50.3168,41.6097 Z M52.1698,28.7257 L53.9358,28.7257 L53.9358,26.7767 L52.1698,26.7767 L52.1698,28.7257 Z" id="Fill-26" fill="#212844"></path>
                <path d="M56.4569,41.6097 L58.4069,41.6097 L58.4069,33.1517 C58.4069,32.8067 58.2449,32.6447 57.9009,32.6447 L56.3409,32.6447 L56.3409,31.3627 L58.5409,31.3627 C59.4829,31.3627 59.9419,31.7977 59.9419,32.6447 L59.9419,33.3107 C59.9419,33.5627 59.9179,33.7217 59.8959,33.8857 L59.8519,34.1357 L59.8959,34.1357 C60.1939,33.2907 61.7289,31.0877 64.5969,31.0877 C67.4379,31.0877 68.4249,32.7157 68.4249,35.5587 L68.4249,41.6097 L70.3719,41.6097 L70.3719,42.8937 L66.8649,42.8937 L66.8649,35.9717 C66.8649,34.1357 66.5679,32.5557 64.3429,32.5557 C61.7749,32.5557 59.9629,34.8017 59.9629,37.3457 L59.9629,41.6097 L61.9109,41.6097 L61.9109,42.8937 L56.4569,42.8937 L56.4569,41.6097 Z" id="Fill-28" fill="#212844"></path>
                <g id="Group-32" transform="translate(70.000000, 30.711000)">
                    <mask id="mask-4" fill="white">
                        <use xlink:href="#path-3"></use>
                    </mask>
                    <g id="Clip-31"></g>
                    <path d="M1.7709,14.8206 C2.0449,14.9796 2.3439,15.1186 2.6879,15.2306 C3.2609,15.4396 4.0389,15.6226 4.8879,15.6226 C7.1579,15.6226 8.9219,14.5686 8.9219,11.9776 L8.9219,10.8326 C8.9219,10.5786 8.9469,10.4186 8.9689,10.2586 C8.9929,10.1676 8.9929,10.0746 8.9929,10.0056 L8.9469,10.0056 C8.2339,11.2896 7.0889,12.1126 5.2799,12.1126 C2.1849,12.1126 0.1429,9.6636 0.1429,6.2016 C0.1429,2.7366 2.0449,0.3766 5.1399,0.3766 C6.7919,0.3766 8.3959,0.9976 9.0159,2.4186 L9.0599,2.4186 C9.0599,2.3926 9.0599,2.3706 9.0379,2.3006 C9.0159,2.2336 9.0159,2.1186 9.0159,1.9126 C9.0159,1.0626 9.3589,0.6516 10.3469,0.6516 L12.4069,0.6516 L12.4069,1.9336 L10.9869,1.9336 C10.6439,1.9336 10.4809,2.0956 10.4809,2.4186 L10.4809,11.9106 C10.4809,15.5766 7.7759,17.0006 4.9349,17.0006 C3.6279,17.0006 2.2969,16.6546 1.1759,16.0826 L1.7709,14.8206 Z M8.9469,6.2016 C8.9469,2.8316 7.3189,1.7746 5.2989,1.7746 C3.0309,1.7746 1.7479,3.4016 1.7479,6.1756 C1.7479,8.9516 3.2149,10.7166 5.5059,10.7166 C7.3419,10.7166 8.9469,9.5916 8.9469,6.2016 Z" id="Fill-30" fill="#212844" mask="url(#mask-4)"></path>
                </g>
                <path d="M113.5966,5.4393 L121.7426,13.3993 L127.2516,12.4523 L115.2096,0.6533 C114.7616,0.2103 114.1726,-0.0067 113.5866,0.0003 C112.9996,-0.0077 112.4096,0.2093 111.9576,0.6543 L94.4966,17.9213 C93.6036,18.8053 93.5946,20.2463 94.4756,21.1413 C94.9196,21.5943 95.5066,21.8193 96.0966,21.8193 C96.6736,21.8193 97.2506,21.5983 97.6966,21.1613 L98.8146,20.0553 L98.8146,33.0973 C98.8146,35.4373 100.7146,37.3393 103.0566,37.3393 L111.8216,37.3393 L111.0606,32.7853 L103.3656,32.7853 L103.3656,15.5553 L113.5966,5.4393 Z" id="Fill-33" fill="#E95461"></path>
                <polygon id="Fill-35" fill="#212844" points="124.538 35.2073 125.068 38.0313 128.659 37.3543 128.127 34.5333"></polygon>
                <polygon id="Fill-37" fill="#212844" points="129.7841 34.22 130.3181 37.041 133.9061 36.365 133.3761 33.547"></polygon>
                <polygon id="Fill-39" fill="#212844" points="135.0312 33.2337 135.5642 36.0537 139.1532 35.3767 138.6242 32.5577"></polygon>
                <polygon id="Fill-41" fill="#212844" points="127.2812 30.0277 123.6892 30.7047 124.2212 33.5237 127.8102 32.8497"></polygon>
                <polygon id="Fill-43" fill="#212844" points="132.5263 29.0423 128.9353 29.7183 129.4693 32.5373 133.0573 31.8603"></polygon>
                <polygon id="Fill-45" fill="#212844" points="137.7743 28.0521 134.1833 28.7281 134.7163 31.5491 138.3063 30.8731"></polygon>
                <path d="M147.2694,33.0892 L144.6484,18.9312 C144.4854,18.0472 143.9864,17.2822 143.2424,16.7772 C142.5024,16.2712 141.6074,16.0892 140.7274,16.2562 L135.7724,17.2192 L135.5254,15.9132 C135.2924,14.6792 134.0964,13.8602 132.8694,14.0982 C131.6334,14.3312 130.8224,15.5222 131.0524,16.7562 L131.3044,18.0882 L129.5614,18.4262 L125.4504,19.2032 L125.2224,17.9932 C124.9894,16.7562 123.7934,15.9402 122.5634,16.1782 C121.3294,16.4102 120.5164,17.6002 120.7504,18.8352 L120.9784,20.0482 L116.0874,20.9722 C115.2054,21.1372 114.4434,21.6382 113.9374,22.3822 C113.4344,23.1272 113.2514,24.0182 113.4214,24.8982 L117.2104,44.4242 C117.3844,45.3042 117.8854,46.0652 118.6284,46.5672 C119.1894,46.9402 119.8344,47.1382 120.4934,47.1382 C120.7104,47.1382 120.9274,47.1162 121.1424,47.0752 L140.7874,43.2332 C141.9854,42.9952 143.2684,42.1052 143.9074,41.0652 L146.6044,36.6652 C147.2054,35.6892 147.4774,34.2202 147.2694,33.0892 M142.7264,34.2842 L140.0554,38.6382 C140.0084,38.6812 139.9184,38.7472 139.8594,38.7732 L121.4494,42.3762 L118.1224,25.2212 L121.8194,24.5222 L122.0574,25.7862 C122.2644,26.8782 123.2194,27.6412 124.2944,27.6412 C124.4334,27.6412 124.5754,27.6302 124.7174,27.6022 C125.9514,27.3682 126.7644,26.1792 126.5334,24.9432 L126.2944,23.6752 L130.3684,22.9052 L130.3684,22.9082 L130.7644,22.8312 L130.7634,22.8272 L132.1474,22.5592 L132.3634,23.7092 C132.5684,24.8022 133.5234,25.5612 134.5984,25.5612 C134.7354,25.5612 134.8794,25.5512 135.0214,25.5222 C136.2564,25.2892 137.0684,24.1002 136.8384,22.8662 L136.6164,21.6932 L140.3954,20.9602 L142.7864,33.8782 C142.7964,33.9852 142.7534,34.2252 142.7264,34.2842" id="Fill-47" fill="#212844"></path>
            </g>
        </g>
    </g>
</svg>